<?xml version="1.0" encoding="UTF-8" standalone="no"?>
<!-- Created with Inkscape (http://www.inkscape.org/) -->

<svg
   xmlns:dc="http://purl.org/dc/elements/1.1/"
   xmlns:cc="http://creativecommons.org/ns#"
   xmlns:rdf="http://www.w3.org/1999/02/22-rdf-syntax-ns#"
   xmlns:svg="http://www.w3.org/2000/svg"
   xmlns="http://www.w3.org/2000/svg"
   xmlns:sodipodi="http://sodipodi.sourceforge.net/DTD/sodipodi-0.dtd"
   xmlns:inkscape="http://www.inkscape.org/namespaces/inkscape"
   id="svg2985"
   version="1.1"
   inkscape:version="0.48.4 r9939"
   width="4800"
   height="6000"
   sodipodi:docname="Use the Force.jpg">
  <metadata
     id="metadata2991">
    <rdf:RDF>
      <cc:Work
         rdf:about="">
        <dc:format>image/svg+xml</dc:format>
        <dc:type
           rdf:resource="http://purl.org/dc/dcmitype/StillImage" />
        <dc:title></dc:title>
      </cc:Work>
    </rdf:RDF>
  </metadata>
  <defs
     id="defs2989" />
  <sodipodi:namedview
     pagecolor="#ffffff"
     bordercolor="#666666"
     borderopacity="1"
     objecttolerance="10"
     gridtolerance="10"
     guidetolerance="10"
     inkscape:pageopacity="0"
     inkscape:pageshadow="2"
     inkscape:window-width="1366"
     inkscape:window-height="706"
     id="namedview2987"
     showgrid="false"
     inkscape:zoom="0.0865"
     inkscape:cx="2400"
     inkscape:cy="3000"
     inkscape:window-x="-8"
     inkscape:window-y="-8"
     inkscape:window-maximized="1"
     inkscape:current-layer="svg2985" />
  <path
     style="fill:#000000"
     d="m 2388,5758.828 c -6.875,-0.4298 -18.125,-1.6673 -25,-2.7499 -6.875,-1.0827 -15.2,-2.2436 -18.5,-2.5798 -3.3,-0.3362 -9.5343,-1.2603 -13.854,-2.0536 -4.3198,-0.7932 -15.1198,-1.9015 -24,-2.4627 -19.5338,-1.2345 -29.3161,-2.9722 -42.8632,-7.6141 -13.3899,-4.5879 -17.6245,-5.807 -27.2828,-7.8546 -4.4,-0.9329 -10.025,-2.3173 -12.5,-3.0765 -2.475,-0.7592 -6.525,-1.6666 -9,-2.0164 -2.475,-0.3498 -7.425,-2.1014 -11,-3.8925 -7.6397,-3.8275 -17.5796,-7.1099 -24.2589,-8.0111 -7.0478,-0.9508 -17.6158,-4.8133 -22.8477,-8.3505 -5.1746,-3.4985 -11.2764,-6.3078 -20.9878,-9.663 -3.6269,-1.253 -9.3558,-4.3112 -12.731,-6.7959 -4.2886,-3.157 -9.317,-5.5825 -16.6967,-8.0537 -7.8391,-2.625 -11.8273,-4.5972 -15.4788,-7.6545 -3.0075,-2.518 -8.8107,-5.6914 -14.9343,-8.1667 -7.474,-3.0211 -10.9731,-5.0639 -13.7901,-8.0505 -2.0761,-2.2012 -6.6814,-5.3498 -10.2339,-6.9969 -6.6728,-3.0938 -15.3183,-8.6365 -20.5233,-13.1576 -1.6404,-1.4249 -6.1404,-4.4519 -10,-6.7266 -3.8596,-2.2747 -8.419,-5.4622 -10.132,-7.0832 -1.713,-1.6211 -5.1598,-4.3807 -7.6597,-6.1325 -2.4998,-1.7519 -6.5561,-4.8821 -9.014,-6.9562 -2.458,-2.074 -6.8861,-5.08 -9.8404,-6.68 -2.9543,-1.6 -10.7198,-7.778 -17.2567,-13.729 -17.5488,-15.9759 -33.3335,-31.8088 -68.1121,-68.32 -3.4054,-3.575 -7.8048,-8.75 -9.7766,-11.5 -1.9717,-2.75 -5.9926,-7.3238 -8.9353,-10.164 -2.9426,-2.8402 -6.3991,-7.2641 -7.6811,-9.8309 -1.2819,-2.5669 -4.4501,-7.2181 -7.0403,-10.3361 -2.5903,-3.1179 -5.5723,-7.019 -6.6268,-8.669 -1.0544,-1.65 -3.2086,-4.35 -4.7871,-6 -1.5784,-1.65 -6.3823,-8.4 -10.6752,-15 -4.2929,-6.6 -9.1845,-13.9075 -10.8702,-16.2388 -1.6857,-2.3313 -4.1865,-6.452 -5.5572,-9.1571 -1.3708,-2.7051 -4.7211,-7.863 -7.4452,-11.462 -5.3072,-7.0118 -9.0414,-13.8116 -11.0827,-20.1814 -0.6981,-2.1784 -2.9178,-6.2107 -4.9327,-8.9607 -5.6913,-7.7678 -9.9478,-17.4232 -11.0207,-24.9989 -0.8867,-6.2616 -1.3754,-7.2583 -5.8434,-11.9171 -5.5788,-5.8171 -7.8707,-10.5514 -9.2389,-19.084 -0.6016,-3.7519 -2.0116,-7.4988 -3.7633,-10 -4.4148,-6.304 -9.0837,-16.7605 -10.7993,-24.1861 -2.2108,-9.5689 -5.3114,-19.0214 -8.0086,-24.4151 -5.5765,-11.1515 -10.4027,-30.3072 -10.414,-41.3341 0,-2.1645 -1.778,-9.1395 -3.9462,-15.5 -2.1681,-6.3606 -4.3707,-13.8147 -4.8945,-16.5647 -0.5238,-2.75 -1.8803,-9.5 -3.0145,-15 -1.1341,-5.5 -2.5611,-13.825 -3.1711,-18.5 -0.6099,-4.675 -1.5304,-11.425 -2.0454,-15 -1.6592,-11.5163 -3.924,-37.289 -3.9282,-44.7012 0,-3.9607 -0.7216,-9.8107 -1.5985,-13 -0.8769,-3.1893 -2.0371,-7.8238 -2.5781,-10.2988 -1.1537,-5.2772 -0.254,-53.9081 1.1932,-64.5 1.8301,-13.3946 4.0092,-36.0353 3.9943,-41.5016 -0.01,-3.0259 1.11,-11.0364 2.485,-17.8011 1.375,-6.7647 2.5,-14.2689 2.5,-16.676 0,-10.425 3.1084,-25.4328 9.014,-43.5213 4.1529,-12.7198 4.9862,-15.917 5.0012,-19.1879 0.014,-3.0352 1.9631,-14.2647 5.3484,-30.8121 0.739,-3.612 3.6235,-11.0541 6.4921,-16.7497 2.9838,-5.9244 5.985,-13.7312 7.112,-18.5 2.7226,-11.5205 4.9876,-17.4477 9.0887,-23.7839 3.3781,-5.2192 6.5167,-13.2221 9.0033,-22.9572 0.6309,-2.47 1.9979,-5.6857 3.0377,-7.146 2.7877,-3.915 9.5599,-17.1792 13.0438,-25.5477 1.675,-4.0235 3.4117,-7.3155 3.8594,-7.3155 0.4476,0 3.6047,-5.5125 7.0156,-12.25 6.0916,-12.0325 8.7458,-16.2322 13.5035,-21.3657 1.3137,-1.4176 3.1678,-4.6715 4.12,-7.2309 2.1376,-5.7452 6.5748,-12.8841 12.6246,-20.3113 2.5348,-3.1118 5.7267,-7.8642 7.0931,-10.5608 1.3665,-2.6966 4.1643,-6.9005 6.2173,-9.3421 2.0531,-2.4416 5.1793,-7.5963 6.9471,-11.455 2.465,-5.3804 4.5588,-8.1644 8.9827,-11.9439 3.1726,-2.7104 7.3418,-7.4284 9.2648,-10.4842 1.9231,-3.0559 8.2742,-10.5371 14.1136,-16.6251 5.8394,-6.0879 15.3236,-16.2129 21.0759,-22.5 10.959,-11.9776 42.3767,-42.981 47.0695,-46.4487 1.5018,-1.1098 9.1404,-8.0848 16.9746,-15.5 7.8343,-7.4153 14.976,-14.0513 15.8706,-14.7467 10.0323,-7.7992 25.0201,-17.901 34.4807,-23.2402 4.5416,-2.5631 5.9737,-2.9682 7.1227,-2.0146 2.8154,2.3366 -0.3189,10.8368 -7.2228,19.5885 -2.1394,2.7119 -5.0872,6.9557 -6.5507,9.4307 -1.4636,2.475 -5.1891,7.196 -8.2789,10.491 -3.0898,3.2951 -7.3322,8.9201 -9.4275,12.5 -2.0953,3.58 -5.0155,7.634 -6.4892,9.009 -1.4738,1.375 -3.5747,4.525 -4.6687,7 -4.2028,9.508 -9.262,18.7015 -13.0047,23.6321 -2.4112,3.1764 -4.5907,7.6388 -5.7198,11.7106 -1.3206,4.7625 -3.5527,8.9577 -8.0855,15.1965 -5.4248,7.4666 -6.5041,9.7095 -8.0783,16.7893 -2.1439,9.6417 -4.8393,15.5127 -9.9492,21.6715 -2.9037,3.4997 -4.4779,7.0409 -7.0817,15.9305 -2.2786,7.7793 -4.558,13.2095 -7.136,17 -5.2205,7.676 -8.4839,17.0529 -9.2468,26.5695 -0.5368,6.696 -1.3872,9.5485 -5.2171,17.5 -2.8222,5.8594 -4.8982,11.7993 -5.4172,15.5 -0.4627,3.3 -1.5379,9.375 -2.3893,13.5 -1.6176,7.8381 -4.158,22.6066 -5.5043,32 -0.4336,3.025 -1.9784,11.575 -3.433,19 -2.8466,14.5312 -3.2901,24.4627 -2.8165,63.0699 0.1837,14.974 0.7033,21.7379 2.2127,28.8011 1.085,5.0772 2.181,9.5681 2.4354,9.9799 0.2545,0.4117 1.6398,7.4762 3.0785,15.6988 3.935,22.4906 5.4293,29.3864 7.0451,32.5111 0.8076,1.5616 1.9738,5.2242 2.5916,8.1392 0.6179,2.915 1.9527,6.9396 2.9662,8.9435 1.0135,2.0039 2.7827,6.9539 3.9316,11 1.1488,4.0461 2.5971,9.1565 3.2184,11.3565 0.6212,2.2 2.775,6.5466 4.7862,9.659 2.0111,3.1125 4.2428,7.1625 4.9593,9 2.7738,7.1137 9.3973,19.7734 11.5729,22.1197 1.2554,1.3539 3.7201,5.3094 5.4771,8.7901 1.757,3.4806 6.2941,10.7562 10.0824,16.1678 3.7882,5.4117 8.01,12.0541 9.3816,14.7609 1.3717,2.7068 5.1099,7.7522 8.3071,11.212 3.1973,3.4598 7.0842,8.4984 8.6376,11.197 2.8581,4.9651 11.5571,14.3997 17.0566,18.4989 1.65,1.2299 7.95,7.0751 14,12.9895 6.05,5.9144 12.8,11.8362 15,13.1597 2.2,1.3235 6.7429,4.7301 10.0953,7.5702 3.3525,2.8401 7.6275,5.9352 9.5,6.8779 1.8726,0.9427 5.8797,3.622 8.9047,5.954 9.1806,7.0773 13.7016,9.503 20.7546,11.1356 3.71,0.8588 8.0954,2.3846 9.7454,3.3907 8.4201,5.1345 21.4177,9.9568 30.9706,11.4906 15.6976,2.5204 55.3696,3.1831 68.8369,1.1499 5.9441,-0.8974 12.0191,-2.2416 13.5,-2.9872 1.4809,-0.7456 4.0425,-1.6736 5.6925,-2.0622 1.65,-0.3886 5.7,-2.4232 9,-4.5214 3.3,-2.0981 8.25,-4.6353 11,-5.6383 3.6005,-1.3132 6.8194,-3.7077 11.5,-8.5547 4.0134,-4.1562 8.1398,-7.3767 10.7867,-8.4187 3.2838,-1.2927 5.5785,-3.404 9.809,-9.025 3.0373,-4.0357 6.7951,-8.4085 8.3506,-9.7173 1.5555,-1.3089 4.9878,-5.2641 7.6273,-8.7893 2.6396,-3.5251 6.6732,-8.4558 8.9635,-10.957 2.6996,-2.948 4.4239,-5.931 4.9022,-8.4807 1.1384,-6.0681 7.506,-21.5055 10.7442,-26.0478 3.0599,-4.2923 4.7753,-9.4557 7.782,-23.4239 1.8413,-8.5542 6.4741,-22.5443 8.1506,-24.6135 0.4963,-0.6125 1.806,-5.3375 2.9105,-10.5 4.0762,-19.052 3.7439,-113.3987 -0.4575,-129.8865 -0.7708,-3.025 -2.845,-9.325 -4.6093,-14 -1.7643,-4.675 -4.2895,-13.9 -5.6116,-20.5 -4.8593,-24.2586 -6.1063,-28.4892 -10.2892,-34.9094 -4.5063,-6.9166 -9.059,-18.5379 -9.059,-23.1244 0,-1.6733 -1.0125,-4.9075 -2.25,-7.187 -6.9427,-12.7886 -11.0313,-20.9221 -12.8491,-25.5608 -1.1248,-2.8701 -3.095,-6.3434 -4.3783,-7.7184 -2.7857,-2.9848 -16.5226,-24.0096 -16.5226,-25.2884 0,-4.4867 -31.7403,-36.7444 -43.5143,-44.2237 -3.4737,-2.2066 -7.8166,-5.3616 -9.6508,-7.0112 -6.7849,-6.1019 -14.0696,-10.7506 -22.0267,-14.0564 -6.8634,-2.8514 -12.2886,-6.3707 -14.8138,-9.6096 -0.2956,-0.3791 -3.4919,-2.0149 -7.1029,-3.635 -6.8317,-3.0652 -10.8915,-6.9798 -10.8915,-10.5019 0,-1.2634 3.5677,-5.609 9.25,-11.2669 5.0875,-5.0657 11.2974,-11.3921 13.7998,-14.0587 2.5023,-2.6665 7.2273,-7.3787 10.5,-10.4714 10.6368,-10.0522 29.2876,-30.6388 31.3066,-34.5559 4.7933,-9.2995 8.762,-10.6753 19.9461,-6.9144 4.2336,1.4236 10.2605,3.27 13.393,4.1031 4.8139,1.2801 7.0433,2.7633 14.4045,9.583 4.7899,4.4377 11.738,10.064 15.44,12.5029 3.7021,2.4389 8.02,5.9066 9.5955,7.7061 1.5755,1.7994 4.1328,4.2442 5.6829,5.4328 1.5502,1.1886 8.4392,7.4721 15.3091,13.9634 8.5112,8.0421 13.2915,13.3881 15.0047,16.78 3.917,7.7555 11.0655,15.4725 16.8108,18.1479 7.0163,3.2671 10.1208,3.1185 12.0313,-0.576 2.7867,-5.3889 1.9361,-13.3186 -3.0636,-28.5597 -2.5241,-7.6945 -5.635,-19.84 -6.9132,-26.99 -2.5049,-14.0115 -4.4256,-19.7257 -7.5629,-22.5 -0.909,-0.8038 -6.7306,-16.0908 -7.9757,-20.9434 -1.2086,-4.7104 -8.2802,-19.4312 -10.6668,-22.2052 -0.7802,-0.9067 -2.711,-5.1133 -4.2909,-9.3481 -2.3939,-6.4169 -3.7816,-8.5175 -8.3298,-12.6082 -6.3684,-5.7278 -9.6714,-12.0174 -9.6714,-18.4163 0,-6.3171 1.9301,-10.2947 7.3431,-15.1332 2.5563,-2.285 6.4557,-6.4416 8.6653,-9.237 2.2097,-2.7955 6.3742,-6.9367 9.2546,-9.2029 2.8803,-2.2661 7.15,-6.8845 9.4882,-10.263 2.3381,-3.3785 6.6404,-8.3927 9.5606,-11.1427 2.9202,-2.75 7.4855,-7.7 10.1451,-11 7.0496,-8.7472 15.1618,-17.9527 22.4106,-25.431 12.3346,-12.725 17.4612,-18.6338 21.7504,-25.069 2.3828,-3.575 6.1632,-8.3 8.4009,-10.5 2.2378,-2.2 5.4151,-6.0896 7.0609,-8.6436 6.1334,-9.5182 11.2566,-8.5511 20.7473,3.9164 3.251,4.2706 6.7153,8.4313 7.6986,9.246 0.9832,0.8146 6.1811,6.6562 11.5509,12.9812 5.3697,6.325 11.4195,13.3 13.444,15.5 2.0245,2.2 5.3059,6.025 7.2921,8.5 3.6327,4.5267 11.0943,12.8094 20.7201,23 2.8574,3.025 7.3345,8.2 9.9491,11.5 2.6147,3.3 6.9022,8.0592 9.5279,10.576 2.6257,2.5168 6.7351,7.4477 9.1321,10.9574 2.397,3.5098 7.0573,8.5553 10.3561,11.2123 7.8593,6.3301 9.9334,10.3541 9.1584,17.7688 -0.8352,7.9903 -4.0958,15.775 -8.7926,20.9924 -4.4476,4.9406 -6.2138,7.9589 -7.3012,12.4774 -1.3208,5.4882 -5.6773,13.9614 -10.0776,19.6004 -4.439,5.6887 -6.6859,12.219 -9.4204,27.3791 -0.7886,4.3725 -2.5618,8.3082 -6.6456,14.75 -5.4103,8.5344 -5.5962,9.0644 -6.4886,18.4969 -1.1101,11.734 -2.4713,19.6386 -4.8713,28.2893 -3.1012,11.178 -4.059,15.8962 -4.059,19.9953 0,3.4019 0.3575,4.0563 2.5116,4.597 2.917,0.7321 11.7211,-1.9098 15.6227,-4.6879 1.4713,-1.0477 4.0108,-4.2672 5.6435,-7.1546 1.6327,-2.8874 6.4006,-8.7228 10.5954,-12.9676 4.1947,-4.2448 7.6268,-8.0794 7.6268,-8.5213 0,-0.4419 5.4495,-5.7439 12.1101,-11.7822 6.6606,-6.0383 15.5827,-14.1942 19.8269,-18.1242 4.2443,-3.9299 10.0609,-8.3332 12.9258,-9.785 2.865,-1.4518 6.8804,-4.1491 8.9231,-5.9941 6.1356,-5.5417 19.9556,-13.4141 24.8321,-14.1454 8.2543,-1.2378 14.3875,1.574 18.6613,8.5553 1.1834,1.9331 5.0922,6.6784 8.6862,10.545 3.594,3.8667 9.9095,10.8082 14.0345,15.4255 15.8095,17.6963 26.0605,28.4169 35.3368,36.9556 4.5168,4.1577 5.325,6.9081 3.2238,10.9715 -1.94,3.7514 -4.3251,5.3896 -12.5259,8.6035 -3.4509,1.3524 -8.358,3.7871 -10.9045,5.4105 -2.5466,1.6233 -6.6552,3.7202 -9.1302,4.6598 -2.9901,1.1351 -6.8864,4.1436 -11.6121,8.9661 -4.7501,4.8474 -8.1807,7.4924 -10.33,7.9645 -4.615,1.0136 -40.008,36.2371 -46.9229,46.6983 -2.7942,4.227 -5.9455,8.502 -7.003,9.5 -1.0575,0.9979 -3.1547,4.0644 -4.6603,6.8144 -1.5057,2.75 -4.7512,7.473 -7.2122,10.4956 -4.9694,6.1032 -8.2944,12.2022 -11.9571,21.9331 -1.3455,3.5747 -3.9418,8.5407 -5.7695,11.0354 -3.6812,5.0246 -6.1321,13.6609 -6.8295,24.0653 -0.4838,7.2178 -2.6596,12.2894 -8.891,20.7245 -3.2105,4.346 -4.1759,6.7803 -5.3625,13.5231 -0.7959,4.5226 -1.4481,10.698 -1.4494,13.723 0,5.3551 -1.5157,14.3004 -4.484,26.5 -4.385,18.0222 -5.4905,24.2654 -6.5518,37 -1.3162,15.7918 -1.6544,70.6401 -0.4958,80.3869 0.6159,5.1812 6.0466,22.9021 7.9744,26.0214 0.8207,1.3278 3.4402,15.3339 4.1318,22.0917 0.7613,7.4384 5.035,19.3869 8.9602,25.051 1.4715,2.1233 4.1997,8.4038 6.0627,13.9568 4.0003,11.9232 4.2464,12.4198 8.938,18.0353 1.9922,2.3844 4.6721,6.3877 5.9554,8.8961 1.2833,2.5084 4.3827,6.8108 6.8875,9.5608 2.5048,2.75 4.5693,5.352 4.5877,5.7822 0.048,1.1243 28.0351,28.9077 31.1057,30.8794 1.4148,0.9084 4.5648,2.2128 7,2.8987 2.4352,0.6858 6.0869,2.5263 8.1148,4.0899 6.2343,4.807 18.4887,9.7894 27.7421,11.2795 4.7139,0.7591 15.3208,1.9372 23.5708,2.6181 13.0618,1.0779 16.7444,1.0226 28.5,-0.4276 32.044,-3.9532 42.1846,-6.3031 50.5954,-11.7246 3.3525,-2.161 9.5827,-5.1016 13.8451,-6.5347 5.4796,-1.8423 9.4552,-4.0249 13.5719,-7.4509 3.2023,-2.665 8.6232,-6.2021 12.0464,-7.8603 3.4232,-1.6583 8.7479,-5.4123 11.8326,-8.3424 3.0847,-2.9301 8.3343,-7.1707 11.6657,-9.4236 3.3313,-2.2529 8.5063,-6.8749 11.5,-10.271 2.9936,-3.3962 9.4012,-9.1467 14.2392,-12.7789 8.4807,-6.3672 10.0215,-8.1781 18.9168,-22.2338 0.8702,-1.375 3.5691,-4.525 5.9975,-7 2.4284,-2.475 6.1084,-7.3945 8.1777,-10.9322 2.0694,-3.5377 5.4474,-8.3463 7.5067,-10.6859 2.0594,-2.3396 5.288,-7.9124 7.1747,-12.3841 2.1528,-5.1026 5.3721,-10.39 8.6445,-14.1982 3.2157,-3.7423 5.8396,-8.0287 6.846,-11.1838 1.751,-5.4896 6.7964,-14.4544 12.058,-21.4251 2.4478,-3.2429 3.4022,-5.7174 3.857,-10 0.9241,-8.7023 3.5021,-15.5884 8.1744,-21.835 3.4012,-4.5473 4.3706,-6.7905 4.8688,-11.2667 0.3421,-3.074 1.0189,-6.714 1.5039,-8.089 0.4851,-1.375 2.279,-8.35 3.9865,-15.5 2.8465,-11.9195 6.157,-23.7828 9.4878,-34 3.2314,-9.9124 3.7791,-20.0092 3.8239,-70.5 0.032,-36.4928 -0.3085,-52.5803 -1.2288,-58 -1.1881,-6.9961 -5.5307,-22.5766 -8.7231,-31.2971 -0.7645,-2.0883 -1.8512,-6.8133 -2.4147,-10.5 -0.5636,-3.6866 -1.4696,-9.6047 -2.0133,-13.1513 -1.7323,-11.2991 -3.9715,-18.3753 -7.9272,-25.0516 -3.8004,-6.4143 -7.0928,-15.8725 -8.9691,-25.7666 -0.5947,-3.1355 -3.2247,-8.882 -6.8907,-15.0561 -3.261,-5.4919 -6.7165,-12.3909 -7.6789,-15.3313 -0.9624,-2.9403 -4.4412,-9.7491 -7.7306,-15.1307 -3.2895,-5.3816 -6.9572,-12.864 -8.1504,-16.6276 -1.1933,-3.7636 -3.3198,-8.3605 -4.7256,-10.2153 -3.1799,-4.1957 -13.8681,-24.5047 -13.8681,-26.3513 0,-0.748 -2.2087,-3.7766 -4.9082,-6.7302 -2.6994,-2.9537 -6.4805,-8.0525 -8.4022,-11.3306 -1.9218,-3.2782 -6.1885,-8.9002 -9.4817,-12.4934 -3.2932,-3.5932 -8.0929,-10.0008 -10.6659,-14.2389 -2.5731,-4.2382 -6.6517,-9.3228 -9.0635,-11.2992 -3.1276,-2.5627 -5.5194,-5.9359 -8.3395,-11.7611 -2.1748,-4.4922 -5.1023,-9.3656 -6.5055,-10.8297 -3.1501,-3.2868 -4.2881,-7.3443 -2.6227,-9.351 1.9593,-2.3609 3.7501,-1.7846 8.782,2.8261 2.589,2.3723 7.6941,5.7134 11.3447,7.4248 5.4103,2.5364 7.3489,4.1298 10.4856,8.6184 2.3387,3.3466 5.8328,6.7096 8.9074,8.5729 2.7825,1.6864 6.839,4.9115 9.0143,7.1669 2.1754,2.2554 6.6552,5.9035 9.9552,8.1068 3.3,2.2034 7.9523,6.2007 10.3384,8.8829 2.3861,2.6823 6.8861,6.4356 10,8.3409 3.1139,1.9052 10.1616,8.0515 15.6616,13.6584 5.5,5.6069 12.925,12.5742 16.5,15.4829 12.7629,10.384 42.7147,40.8843 48.052,48.932 1.8238,2.75 3.5898,5.225 3.9244,5.5 0.3345,0.275 3.9642,4.5471 8.0659,9.4936 4.1018,4.9464 8.2835,9.8964 9.2927,11 1.0093,1.1035 4.2529,5.4231 7.2081,9.5991 2.9552,4.1761 6.1445,8.2261 7.0874,9 2.3723,1.9473 10.7183,14.8563 12.2839,18.9999 2.2956,6.0757 3.4102,7.9318 7.3282,12.2043 2.1199,2.3117 5.0105,6.4531 6.4235,9.2031 1.413,2.75 5.3819,8.825 8.8198,13.5 4.052,5.5102 7.0125,10.8242 8.4166,15.1078 1.2393,3.7808 3.2826,7.6313 4.776,9 3.3953,3.1118 8.7539,14.6558 10.8832,23.4456 0.9255,3.8206 4.3758,12.1216 7.6674,18.4466 5.5724,10.7081 8.8433,19.0386 11.7754,29.9908 0.6613,2.47 2.0463,5.6762 3.0779,7.125 4.3041,6.0445 10.4355,26.994 12.2586,41.8842 0.303,2.475 2.4063,9.675 4.6741,16 5.6454,15.746 6.4704,18.9317 8.9959,34.7359 1.2097,7.5703 3.6916,20.7391 5.5152,29.2641 1.8237,8.525 3.8387,18.425 4.4778,22 0.639,3.575 1.5579,8.3 2.0418,10.5 0.4839,2.2 1.8422,11.875 3.0184,21.5 2.0262,16.5813 2.1108,20.5448 1.6122,75.5 -0.5407,59.5941 -1.5806,78.15 -5.2319,93.3581 -0.8771,3.653 -2.7064,11.1419 -4.0651,16.6419 -3.7634,15.2344 -5.379,24.4308 -5.3792,30.619 -4e-4,11.5417 -4.7682,30.7172 -11.5322,46.381 -2.1962,5.0859 -4.468,15.7947 -4.468,21.0613 0,5.5114 -3.3874,18.051 -7.0168,25.9755 -1.6408,3.5823 -2.9832,6.7157 -2.9832,6.9632 0,0.2475 -1.2831,3.2737 -2.8514,6.725 -1.5683,3.4512 -3.1635,8.2809 -3.545,10.7326 -0.9346,6.0063 -5.6587,18.9845 -10.0255,27.5424 -1.9646,3.85 -3.5733,7.7609 -3.575,8.691 0,0.93 -0.3857,1.9274 -0.8533,2.2164 -0.4675,0.289 -1.8684,3.803 -3.1129,7.809 -2.1703,6.9856 -4.5079,11.7796 -11.5968,23.7836 -1.7865,3.025 -4.0396,7.9744 -5.007,10.9986 -1.8101,5.6583 -6.0142,13.0723 -13.2788,23.4172 -2.2849,3.2537 -4.1543,6.4538 -4.1543,7.1114 0,0.6576 -2.1904,4.5205 -4.8676,8.5842 -2.6771,4.0637 -7.4722,12.3386 -10.6557,18.3886 -3.1835,6.05 -7.4676,13.025 -9.5203,15.5 -2.0527,2.475 -4.4245,5.85 -5.2706,7.5 -0.8462,1.65 -3.3479,5.025 -5.5595,7.5 -2.2116,2.475 -5.7322,7.8529 -7.8237,11.9509 -2.6665,5.2248 -6.2967,10.0053 -12.1503,16 -4.5912,4.702 -9.4762,10.3491 -10.8554,12.5491 -2.5882,4.1284 -3.793,5.4371 -28.9999,31.5 -8.245,8.525 -16.9723,17.708 -19.3939,20.4067 -2.4217,2.6987 -6.6531,6.6709 -9.4031,8.8271 -2.75,2.1562 -7.9429,6.6982 -11.5397,10.0933 -9.8378,9.286 -24.4877,21.684 -30.8258,26.0875 -3.099,2.1531 -7.4345,5.6836 -9.6345,7.8457 -2.2,2.1621 -6.925,5.2782 -10.5,6.9247 -3.575,1.6465 -8.525,4.9341 -11,7.3058 -2.475,2.3717 -6.975,5.5812 -10,7.1323 -3.025,1.551 -10.225,5.71 -16,9.2422 -5.775,3.5321 -13.1898,7.7535 -16.4774,9.3808 -3.2875,1.6273 -7.2943,4.0669 -8.9038,5.4212 -3.5813,3.0134 -15.2538,8.9692 -22.3963,11.4275 -2.9027,0.999 -7.1777,3.3458 -9.5,5.2149 -4.9768,4.0056 -12.8733,7.7863 -21.2225,10.1608 -3.3,0.9385 -7.4769,2.6122 -9.2821,3.7193 -1.8051,1.1072 -5.8551,2.8364 -9,3.8428 -3.1448,1.0064 -8.8416,3.0096 -12.6594,4.4516 -3.8179,1.442 -11.0179,3.7007 -16,5.0194 -4.9822,1.3186 -14.0155,4.6317 -20.074,7.3623 -13.0646,5.8883 -35.2709,11.1341 -47.1321,11.1341 -2.2251,0 -7.1104,1.6943 -12.7314,4.4155 -5.0166,2.4285 -11.596,4.8852 -14.621,5.4593 -5.3282,1.0112 -26.2974,3.0689 -52,5.1029 -6.875,0.544 -20.15,2.6008 -29.5,4.5706 l -17,3.5814 -37.5,0.2399 c -20.625,0.132 -43.125,-0.1117 -50,-0.5416 z M 1867,4190.9418 c -68.7059,-5.0302 -129.0858,-41.9715 -163.7514,-100.1855 -20.5741,-34.55 -32.3582,-76.3534 -33.8996,-120.2563 -2.4246,-69.0565 15.7614,-131.2251 51.0431,-174.4899 11.4911,-14.0911 30.0596,-31.0234 44.6079,-40.677 25.2076,-16.7266 55.7203,-27.8662 89,-32.492 12.3247,-1.7131 52.549,-1.7481 64.5,-0.056 63.5203,8.9931 114.8746,40.6956 147.7578,91.215 14.9957,23.0383 26.4674,52.1208 32.6468,82.7644 4.3604,21.6232 5.5364,34.8936 5.4708,61.7356 -0.096,39.3981 -5.4836,69.5519 -18.1344,101.5 -24.6189,62.1728 -70.725,104.2182 -134.3721,122.5377 -27.4566,7.9029 -54.771,10.6077 -84.8689,8.4041 z m 47.5,-60.409 c 29.9406,-5.2664 55.0174,-18.7832 76.6387,-41.3095 24.1843,-25.1967 37.8882,-57.5023 42.9381,-101.2233 1.5674,-13.5701 1.5765,-48.6679 0.016,-61.5 -4.1187,-33.8668 -14.0043,-62.9424 -29.2398,-86 -6.9025,-10.4463 -26.0888,-29.6495 -36.353,-36.385 -15.9468,-10.4646 -31.9359,-17.0537 -51.5,-21.2235 -13.786,-2.9382 -42.4715,-3.2206 -56.7358,-0.5585 -21.8959,4.0863 -42.6258,12.695 -59.7452,24.8109 -35.6487,25.2295 -53.3472,59.4521 -60.1748,116.3561 -2.3448,19.5426 -2.3397,56.8058 0.01,73 5.3469,36.8518 17.5736,65.2715 37.987,88.2973 24.8064,27.9811 53.9127,42.7735 93.6588,47.5993 7.008,0.8509 33.7284,-0.3209 42.5,-1.8638 z m 916.4825,60.3955 c -52.7834,-3.5851 -92.0004,-19.9931 -124.0626,-51.9065 -19.0814,-18.9928 -33.0202,-40.138 -43.7647,-66.3909 -16.8549,-41.1828 -24.2972,-83.3082 -22.8137,-129.1309 0.7484,-23.1177 1.8779,-33.5622 5.7001,-52.7109 16.7917,-84.1238 70.5915,-142.1245 150.6058,-162.3656 20.9885,-5.3094 33.7808,-6.7739 58.8526,-6.7375 23.7462,0.034 35.7209,1.3551 54,5.9555 58.5478,14.7349 102.3974,56.213 122.8173,116.1751 5.3403,15.6814 7.321,14.1872 -30.5806,23.0688 -17.0145,3.987 -31.041,7.1064 -31.1699,6.9319 -0.1289,-0.1745 -1.6956,-4.5923 -3.4815,-9.8173 -14.8254,-43.3754 -41.0054,-70.2619 -77.3795,-79.4674 -36.9315,-9.3467 -81.6107,-3.598 -111.5796,14.3563 -14.8494,8.8963 -30.2519,23.554 -39.6861,37.7673 -12.2534,18.4605 -21.566,45.9651 -26.5748,78.4882 -2.9017,18.8408 -3.1241,57.261 -0.4479,77.3556 3.5322,26.5224 10.4152,51.5827 19.0274,69.2775 17.5383,36.0343 48.4706,59.3154 90.8668,68.3906 14.6725,3.1408 41.7539,3.1297 56.4907,-0.023 49.8153,-10.6577 83.2887,-45.6049 96.6668,-100.923 2.7566,-11.3984 1.3097,-11.2926 35.9091,-2.6272 32.3627,8.1053 33.3658,8.585 32.1115,15.3568 -1.235,6.6674 -7.7209,25.5345 -12.915,37.5692 -21.5541,49.9404 -58.1301,84.5605 -107.2217,101.488 -26.5269,9.1468 -55.8608,12.3315 -91.3705,9.9196 z m -1538.3275,-8.757 c -1.5296,-1.6902 -1.655,-18.7989 -1.655,-225.8451 0,-215.7533 0.068,-224.0773 1.8287,-225.6712 1.6848,-1.5247 13.7609,-1.655 153.3451,-1.655 145.5165,0 151.5818,0.072 153.1712,1.8287 1.4523,1.6048 1.655,5.0734 1.655,28.3257 0,26.404 -0.01,26.5046 -2.3145,28.6713 l -2.3144,2.1743 -119.1856,0 -119.1855,0 0,65 0,65 103.345,0 c 98.849,0 103.417,0.08 105,1.8287 1.454,1.6067 1.655,5.1095 1.655,28.8451 0,24.9029 -0.1431,27.1457 -1.8287,28.6712 -1.6768,1.5175 -10.4014,1.655 -105,1.655 l -103.1713,0 0,99.845 c 0,95.4582 -0.08,99.9177 -1.8287,101.5 -1.6162,1.4626 -5.3179,1.655 -31.8451,1.655 -27.8092,0 -30.1379,-0.1345 -31.6712,-1.8287 z m 899.0672,-0.1827 c -1.6185,-1.8903 -1.7222,-15.4899 -1.7222,-225.845 0,-215.5764 0.068,-223.8947 1.8287,-225.4886 1.6783,-1.5188 10.8322,-1.6547 111.25,-1.6509 64.6361,0 115.1514,0.4221 123.4213,1.0255 28.5121,2.0804 49.2135,6.7398 66,14.855 11.9857,5.7943 19.7732,11.5125 29.2135,21.4506 24.275,25.5553 36.3519,62.0446 33.2265,100.3907 -2.2974,28.1863 -12.8309,51.7496 -32.1117,71.8329 -17.245,17.9628 -44.315,31.8469 -74.204,38.0591 -4.7434,0.9859 -8.6048,2.0377 -8.581,2.3373 0.024,0.2997 4.1808,3.0198 9.2377,6.0448 14.746,8.8209 37.1595,32.119 55.3167,57.5 2.7543,3.85 20.686,31.525 39.8483,61.5 19.1623,29.975 37.4761,58.5911 40.6973,63.5913 3.2212,5.0002 5.8567,9.5915 5.8567,10.2029 0,0.6114 -0.5222,2.2579 -1.1605,3.6587 l -1.1605,2.5471 -38.7209,0 -38.7209,0 -31.2778,-49.25 c -52.1361,-82.0935 -68.3525,-105.2189 -86.4297,-123.2538 -12.1467,-12.1181 -20.1177,-17.315 -34.0297,-22.1862 l -8,-2.8012 -47.25,-0.3163 -47.25,-0.3164 0,97.407 c 0,93.0963 -0.081,97.4802 -1.8287,99.0619 -1.616,1.4624 -5.3132,1.655 -31.7778,1.655 -28.7683,0 -30.0169,-0.079 -31.6713,-2.0114 z M 2419.5,3923.6759 c 13.4355,-2.3926 22.6981,-5.2519 31.815,-9.8212 16.0028,-8.0205 28.9424,-24.8894 33.2561,-43.3547 2.1966,-9.403 1.4942,-28.5801 -1.3377,-36.5225 -3.824,-10.7245 -7.4343,-16.4085 -15.6184,-24.5887 -12.1629,-12.1571 -25.8387,-18.139 -49.3949,-21.6055 -6.5004,-0.9566 -28.0663,-1.2833 -84.7201,-1.2833 l -76,0 -0.2568,69.8116 -0.2568,69.8116 76.7568,-0.4223 c 64.6635,-0.3558 78.1748,-0.6749 85.7568,-2.025 z m 708.6743,258.0096 -2.1743,-2.3144 0,-223.0112 0,-223.0113 2.3145,-2.1743 2.3144,-2.1743 161.5112,0 161.5113,0 2.1743,2.3145 c 2.1174,2.2538 2.1743,2.9956 2.1743,28.3256 0,25.8963 -0.01,26.0209 -2.3145,28.1856 l -2.3144,2.1743 -129.6929,0 -129.6929,0 0.2574,64.25 0.2573,64.25 121.4257,0.254 c 111.2459,0.2327 121.5786,0.3924 123.25,1.905 1.6789,1.5194 1.8243,3.7778 1.8243,28.341 0,24.5869 -0.1441,26.8204 -1.8287,28.345 -1.6806,1.5209 -11.687,1.655 -123.5,1.655 l -121.6713,0 0,72 0,72 135.345,0 c 129.8501,0 135.4122,0.074 137,1.8287 1.454,1.6067 1.655,5.1095 1.655,28.8451 0,24.9029 -0.1431,27.1457 -1.8287,28.6712 -1.6863,1.5261 -14.8366,1.655 -168.8257,1.655 l -166.997,0 -2.1743,-2.3145 z M 1794.655,3433.1713 c -1.5281,-1.6886 -1.655,-16.7944 -1.655,-197 l 0,-195.1713 -71.845,0 c -68.3323,0 -71.9259,-0.089 -73.5,-1.8287 -1.454,-1.6067 -1.655,-5.1095 -1.655,-28.8451 0,-24.9029 0.1431,-27.1457 1.8287,-28.6712 1.6872,-1.5269 15.5676,-1.655 179.3451,-1.655 170.7048,0 177.5797,0.07 179.1712,1.8287 1.4523,1.6048 1.655,5.0734 1.655,28.3257 0,26.404 -0.01,26.5046 -2.3145,28.6713 l -2.3144,2.1743 -71.6856,0 -71.6855,0 0,195.345 c 0,187.9771 -0.069,195.4074 -1.8287,197 -1.6162,1.4626 -5.3179,1.655 -31.8451,1.655 -27.8092,0 -30.1379,-0.1345 -31.6712,-1.8287 z m 286,0 c -1.5296,-1.6902 -1.655,-18.7989 -1.655,-225.8451 0,-215.7533 0.068,-224.0773 1.8287,-225.6712 1.6162,-1.4626 5.3179,-1.655 31.8451,-1.655 27.8092,0 30.1379,0.1345 31.6712,1.8287 1.5141,1.6731 1.655,9.4633 1.655,91.5 l 0,89.6713 112,0 112,0 0,-89.3257 0,-89.3257 2.3145,-2.1743 c 2.2702,-2.1328 2.8882,-2.1743 32.345,-2.1743 27.8231,0 30.1522,0.1344 31.6855,1.8287 1.5296,1.6902 1.655,18.7628 1.655,225.3257 l 0,223.497 -2.3145,2.1743 c -2.2683,2.131 -2.9021,2.1743 -31.8256,2.1743 l -29.5113,0 -2.1743,-2.3145 -2.1743,-2.3144 0,-103.1899 0,-103.1899 -111.75,0.2544 -111.75,0.2543 -0.2547,103.4264 c -0.2327,94.4966 -0.3972,103.5839 -1.905,105.25 -1.5276,1.6881 -3.894,1.8236 -31.8403,1.8236 -27.9776,0 -30.3113,-0.134 -31.845,-1.8287 z m 467.5193,-0.4858 -2.1743,-2.3144 0,-223.0112 0,-223.0113 2.3145,-2.1743 2.3144,-2.1743 161.5112,0 161.5113,0 2.1743,2.3145 c 2.1174,2.2538 2.1743,2.9956 2.1743,28.3256 0,25.8963 -0.01,26.0209 -2.3145,28.1856 l -2.3144,2.1743 -129.6856,0 -129.6855,0 0,64.5078 0,64.5078 121.6538,-0.024 c 112.2793,-0.022 121.7961,0.1052 123.5,1.6472 1.7071,1.5449 1.8462,3.6821 1.8462,28.3608 0,24.5869 -0.1441,26.8204 -1.8287,28.345 -1.6806,1.5209 -11.687,1.655 -123.5,1.655 l -121.6713,0 0,72 0,72 134.9886,0 c 126.2864,0 135.1182,0.111 137,1.7222 1.9234,1.647 2.0114,2.9084 2.0114,28.8451 0,25.0061 -0.1427,27.2519 -1.8287,28.7777 -1.6863,1.5261 -14.8366,1.655 -168.8257,1.655 l -166.997,0 -2.1743,-2.3145 z m -633.3631,-740.6692 c -48.1366,-3.7877 -84.0027,-17.4195 -109.879,-41.762 -28.4945,-26.8056 -42.5589,-64.1394 -46.8798,-124.4417 -0.661,-9.2249 -1.0524,-66.3494 -1.0524,-153.595 0,-133.3015 0.074,-138.9744 1.8287,-140.5626 1.6162,-1.4626 5.3179,-1.655 31.8451,-1.655 27.4296,0 30.1541,0.1523 31.6157,1.7674 1.4465,1.5983 1.6391,15.6402 2.0129,146.75 0.2911,102.1172 0.7587,147.7914 1.5814,154.4826 4.378,35.609 10.3464,52.2469 24.1374,67.2867 20.0777,21.8957 49.0323,31.6349 90.4788,30.4336 32.2032,-0.9333 54.8976,-6.979 71.9942,-19.1789 18.6942,-13.3399 27.681,-32.239 34.2566,-72.0414 1.472,-8.9101 1.6881,-26.072 1.9823,-157.4693 l 0.3302,-147.4692 2.1427,-2.2808 c 2.139,-2.2769 2.1937,-2.2807 32.4116,-2.2807 30.1455,0 30.2753,0.01 31.8257,2.2225 1.3903,1.985 1.5557,16.6004 1.547,136.75 -0.01,78.5589 -0.4299,141.6002 -1.0197,151.5275 -3.7792,63.6089 -16.7887,99.143 -46.7067,127.5745 -24.6877,23.4612 -55.8,37.4418 -94.3079,42.3782 -14.4529,1.8528 -46.0354,2.6738 -60.1448,1.5636 z M 2374,2691.9904 c -68.5143,-4.7289 -115.8384,-28.1501 -144.4511,-71.4904 -15.1868,-23.0039 -24.496,-51.7304 -24.8898,-76.8054 l -0.1591,-10.1322 25.5,-2.1956 c 14.025,-1.2075 28.3125,-2.4716 31.75,-2.809 l 6.25,-0.6135 0,2.9174 c 0,9.652 6.279,32.7604 11.9849,44.1073 7.3992,14.7144 15.9123,24.0574 30.5151,33.4897 23.6108,15.2509 51.5774,22.6642 85.5,22.6642 32.6814,0 57.2188,-6.2372 77.6614,-19.7409 13.059,-8.6263 21.8454,-20.0882 26.606,-34.7078 2.3805,-7.3103 2.8146,-24.5114 0.7988,-31.6477 -3.8621,-13.6725 -13.9028,-26.5411 -26.83,-34.3865 -15.8475,-9.6179 -31.801,-14.7527 -95.712,-30.8059 -78.8051,-19.7942 -101.5031,-29.6244 -126.5242,-54.796 -19.697,-19.8154 -29.2017,-41.3664 -30.7288,-69.6743 -1.7813,-33.0196 10.874,-65.6239 34.691,-89.3754 15.002,-14.9607 32.5661,-25.3314 55.7735,-32.9314 23.5108,-7.6994 42.4666,-10.4543 71.7643,-10.43 30.5049,0.025 52.6099,3.3498 76.0774,11.4417 48.264,16.6421 78.7981,48.537 90.4666,94.4984 2.3298,9.1766 5.7043,34.0997 4.7331,34.9565 -0.1524,0.1345 -14.77,1.3194 -32.4835,2.6331 l -32.2065,2.3887 -0.6099,-5.5227 c -2.6744,-24.2142 -13.7241,-46.8494 -28.8416,-59.0816 -19.4578,-15.744 -43.2617,-21.6823 -82.9023,-20.6814 -41.39,1.0451 -63.1708,9.1623 -79.802,29.7403 -16.5301,20.453 -15.2087,49.9849 3.0143,67.3667 12.8467,12.2537 36.2218,20.4211 103.5544,36.1826 43.8216,10.258 70.3085,18.4204 89.0077,27.4292 40.0657,19.3027 64.0945,47.632 72.1151,85.0215 2.5562,11.9162 2.5884,38.2002 0.061,49.9256 -4.5246,20.9922 -12.4826,37.8175 -26.3929,55.8011 -22.7029,29.3511 -64.4153,50.435 -111.2278,56.2212 -12.2363,1.5125 -39.6073,2.0402 -54.0633,1.0425 z m 286.1743,-9.3049 -2.1743,-2.3144 0,-223.0112 0,-223.0113 2.3145,-2.1743 2.3144,-2.1743 161.5112,0 161.5113,0 2.1743,2.3145 c 2.1174,2.2538 2.1743,2.9956 2.1743,28.3256 0,25.8963 -0.01,26.0209 -2.3145,28.1856 l -2.3144,2.1743 -129.6856,0 -129.6855,0 0,64.5 0,64.5 121.845,0 c 116.7715,0 121.9139,0.076 123.5,1.8287 1.4524,1.6049 1.655,5.0747 1.655,28.3451 0,24.4185 -0.1447,26.6472 -1.8287,28.1712 -1.6806,1.5209 -11.687,1.655 -123.5,1.655 l -121.6713,0 0,72 0,72 135.345,0 c 129.8501,0 135.4122,0.074 137,1.8287 1.454,1.6067 1.655,5.1095 1.655,28.8451 0,24.9029 -0.1431,27.1457 -1.8287,28.6712 -1.6863,1.5261 -14.8366,1.655 -168.8257,1.655 l -166.997,0 -2.1743,-2.3145 z m -610.6114,-750.4872 c -0.3572,-1.1257 6.3884,-20.0358 17.2206,-48.2744 9.7943,-25.5332 28.3623,-73.9909 41.2622,-107.684 l 23.4543,-61.26 16.9853,0.26 16.9853,0.2601 6.1322,15 c 3.3727,8.25 21.3133,52.35 39.8679,98 18.5547,45.65 35.4938,87.2441 37.6424,92.4313 2.183,5.2702 3.6519,10.2337 3.3294,11.25 -0.5286,1.6654 -2.0268,1.8187 -17.7683,1.8187 l -17.1911,0 -8.3881,-22.25 c -4.6134,-12.2375 -10.1554,-26.8625 -12.3156,-32.5 l -3.9275,-10.25 -43.676,0.01 -43.6759,0.01 -11.5195,32.2406 -11.5196,32.2406 -16.1553,0.2744 c -14.9764,0.2544 -16.1982,0.1394 -16.7427,-1.5761 z M 2182,1841.5457 c 0,-0.2499 -6.0211,-16.5624 -13.3802,-36.25 -7.3591,-19.6876 -14.8966,-40.3934 -16.75,-46.0128 -1.8534,-5.6194 -3.6357,-10.2319 -3.9607,-10.25 -0.3249,-0.018 -1.162,2.5546 -1.8602,5.7171 -1.94,8.7885 -7.7819,25.9395 -19.4416,57.0779 -5.834,15.5804 -10.6073,28.7429 -10.6073,29.25 0,0.5442 13.5254,0.9221 33,0.9221 18.15,0 33,-0.2044 33,-0.4543 z m 98.6923,91.8133 C 2280.3115,1932.9782 2280,1883.9252 2280,1824.3524 l 0,-108.3143 2.25,-0.5566 c 1.2375,-0.3061 8.498,-0.4271 16.1345,-0.269 l 13.8846,0.2875 29.4828,44 c 16.2155,24.2 40.9049,61.0697 54.8654,81.9328 l 25.3827,37.9327 0,-81.0603 c 0,-67.9083 0.2251,-81.2471 1.3873,-82.2117 0.9377,-0.7782 5.8805,-1.061 15.25,-0.8725 l 13.8627,0.279 0,109 0,109 -15.929,0 -15.929,0 -15.126,-22.5 c -8.3194,-12.375 -32.8763,-48.9733 -54.571,-81.3295 l -39.445,-58.8294 -0.5,81.3294 -0.5,81.3295 -14.5577,0.2756 c -8.0067,0.1516 -14.8692,-0.036 -15.25,-0.4166 z m 225.5577,-0.4938 c -1.7865,-1.8083 -1.8357,-214.8795 -0.05,-216.6652 0.8951,-0.8951 11.6296,-1.1942 42.25,-1.1773 43.5067,0.024 61.6489,0.9215 72.426,3.5829 34.0263,8.4028 56.1144,35.2086 63.7733,77.3944 2.3559,12.9768 2.3464,41.7038 -0.018,55.4976 -3.1957,18.6401 -10.1506,36.2093 -19.2,48.5024 -12.6805,17.2257 -26.6146,25.952 -49.9309,31.2692 -8.2663,1.8851 -13.0354,2.0854 -58.5,2.4568 -39.0224,0.3188 -49.7646,0.1366 -50.75,-0.8608 z m 101.25,-30.247 c 22.1296,-5.0338 35.5244,-19.4918 42.1097,-45.4518 4.7608,-18.7675 4.9069,-48.6898 0.325,-66.5628 -3.6327,-14.1703 -11.3332,-26.7697 -21.1273,-34.5678 -11.9062,-9.4799 -19.0091,-10.8644 -60.0574,-11.7065 l -30.75,-0.6308 0,80.7639 0,80.7638 31.25,-0.5078 c 23.4731,-0.3815 32.992,-0.9041 38.25,-2.1002 z m -917,-320.1662 c -38.7235,-3.8671 -65.765,-12.5006 -91.5,-29.2127 -35.6456,-23.1481 -60.8479,-57.7326 -77.502,-106.3541 -12.0799,-35.2671 -17.4111,-71.9923 -16.169,-111.3852 0.7229,-22.9272 1.8561,-33.3902 5.704,-52.6681 9.4096,-47.1424 33.1267,-90.6336 64.3418,-117.9868 41.5406,-36.4013 101.145,-55.3081 160.7948,-51.005 49.5814,3.5767 85.9654,19.2691 117.3874,50.6288 18.4779,18.4413 29.9181,36.1014 40.3328,62.2616 6.3279,15.8946 7.1819,19.4437 5.3893,22.398 -1.3671,2.2531 -4.3919,3.1603 -32.4927,9.7452 -17.0419,3.9935 -31.0907,7.1181 -31.2196,6.9436 -0.1289,-0.1745 -1.6843,-4.5923 -3.4564,-9.8173 -17.079,-50.3573 -48.7692,-77.6149 -96.4135,-82.9275 -37.666,-4.2 -75.6492,4.7601 -101.7825,24.0103 -22.4348,16.5258 -37.4438,37.919 -46.9469,66.9162 -17.8704,54.5289 -16.796,124.0008 2.7296,176.501 16.2518,43.6976 49.0457,71.424 96.6145,81.685 14.5518,3.1389 41.6543,3.1244 56.4221,-0.03 23.5308,-5.0265 42.0888,-14.5326 58.3883,-29.9087 17.2863,-16.307 31.4655,-42.5688 38.3471,-71.0242 2.766,-11.4373 1.2373,-11.3355 36.6128,-2.4378 35.5968,8.9533 33.7322,7.5501 29.5247,22.218 -22.8661,79.7154 -76.8703,128.963 -154.1066,140.5334 -14.2249,2.1309 -44.3129,2.583 -61,0.9165 z m 252.3058,-9.2036 c -1.5903,-2.6921 -1.4136,-3.3019 8.1842,-28.25 5.3953,-14.0241 18.3588,-47.7734 28.8077,-74.9984 10.449,-27.225 39.5616,-103.05 64.6946,-168.5 25.133,-65.45 50.9655,-132.725 57.4057,-149.5 l 11.7093,-30.5 34.9464,-0.2472 34.9463,-0.2472 8.4267,20.7472 c 4.6347,11.411 13.6819,33.5722 20.1048,49.2472 6.4229,15.675 18.7654,45.825 27.4278,67 8.6624,21.175 27.4489,67.075 41.7479,102 44.275,108.1411 84.0419,205.3803 85.0883,208.06 0.7763,1.9883 0.6059,3.1608 -0.763,5.25 l -1.7625,2.69 -35.2817,0 -35.2817,0 -3.7871,-9.75 c -2.0829,-5.3625 -13.7653,-35.625 -25.961,-67.25 l -22.1738,-57.5 -90.797,0 -90.797,0 -7.2713,20 c -3.9992,11 -14.6958,40.475 -23.7703,65.5 -9.0744,25.025 -16.8059,46.2875 -17.181,47.25 -0.6306,1.6178 -3.1884,1.75 -33.8595,1.75 l -33.1774,0 -1.6254,-2.7516 z M 2219,1383.3687 c 0,-0.3472 -6.7953,-18.6847 -15.1007,-40.75 -40.5168,-107.6429 -46.9509,-125.1945 -52.5512,-143.3537 -1.5665,-5.0792 -3.0731,-9.2329 -3.3481,-9.2305 -0.275,0 -2.0244,6.1832 -3.8875,13.735 -5.4475,22.0797 -12.909,43.9067 -37.3402,109.2305 -12.6506,33.825 -23.8431,63.6375 -24.8721,66.25 l -1.871,4.75 69.4854,0 c 38.217,0 69.4854,-0.2841 69.4854,-0.6313 z m 204.655,190.8026 c -1.5296,-1.6902 -1.655,-18.7989 -1.655,-225.8451 0,-215.7533 0.068,-224.0773 1.8287,-225.6712 1.6162,-1.4626 5.3179,-1.655 31.8451,-1.655 27.8092,0 30.1379,0.1345 31.6712,1.8287 1.5281,1.6886 1.655,16.7944 1.655,197 l 0,195.1713 108.345,0 c 103.6929,0 108.4161,0.079 110,1.8287 1.454,1.6067 1.655,5.1095 1.655,28.8451 0,24.9029 -0.1431,27.1457 -1.8287,28.6712 -1.6834,1.5234 -12.9618,1.655 -141.8451,1.655 -134.3754,0 -140.0829,-0.074 -141.6712,-1.8287 z m 364.5193,-0.4858 -2.1743,-2.3144 0,-223.0112 0,-223.0113 2.3145,-2.1743 c 2.307,-2.1674 2.4605,-2.1743 48.25,-2.1703 l 45.9355,0 62.1488,186.0017 62.1488,186.0017 10.488,-31.2557 c 5.7685,-17.1906 13.0528,-38.6807 16.1874,-47.7557 3.1346,-9.075 8.1728,-23.7 11.1961,-32.5 3.0232,-8.8 12.3974,-36.025 20.8314,-60.5 15.5437,-45.1065 25.2187,-73.2276 53.2415,-154.75 l 15.5544,-45.25 41.6968,0 c 39.1252,0 41.7989,0.1128 43.3518,1.8287 1.5296,1.6902 1.655,18.7989 1.655,225.8451 0,215.7533 -0.068,224.0773 -1.8287,225.6712 -1.6133,1.46 -5.2484,1.655 -30.8451,1.655 -26.8224,0 -29.1411,-0.138 -30.6684,-1.8256 -1.5209,-1.6806 -1.6723,-15.6868 -1.905,-176.25 L 3155.5,1223.5 l -3.174,9 c -1.7457,4.95 -7.0616,20.25 -11.813,34 -4.7515,13.75 -10.3738,29.95 -12.4942,36 -4.3385,12.3793 -41.6996,119.9841 -54.685,157.5 -4.6641,13.475 -14.0325,40.475 -20.8186,60 -6.7861,19.525 -13.8964,40 -15.8007,45.5 l -3.4622,10 -29.8762,0.2597 -29.8761,0.2597 -8.3542,-24.7597 c -8.8979,-26.371 -13.7953,-40.8024 -41.6598,-122.7597 -9.7237,-28.6 -21.8704,-64.375 -26.9927,-79.5 -29.756,-87.8626 -42.4257,-124.8929 -43.7943,-128 -1.3966,-3.1706 -1.5481,13.1954 -1.6094,173.9091 -0.063,164.0906 -0.1927,177.5474 -1.7336,179.25 -1.5442,1.7063 -3.7622,1.8409 -30.3367,1.8409 l -28.6707,0 -2.1743,-2.3145 z M 1556.655,825.17126 c -1.5296,-1.69021 -1.655,-18.79883 -1.655,-225.84501 0,-215.75333 0.068,-224.07732 1.8287,-225.67126 1.6162,-1.46261 5.3179,-1.65499 31.8451,-1.65499 27.8092,0 30.1379,0.13446 31.6712,1.82874 1.5181,1.67743 1.655,10.59235 1.655,107.74826 l 0,105.91953 L 1729.7517,479.74826 1837.5035,372 l 41.2993,0 41.2993,0 1.4079,3.36966 1.4079,3.36965 -14.2089,13.94776 c -7.815,7.67127 -28.159,27.39928 -45.209,43.84003 -17.05,16.44075 -43.15,41.60859 -58,55.92854 -14.85,14.31995 -33.525,32.36241 -41.5,40.09435 -7.975,7.73194 -17.0907,16.50876 -20.2571,19.50404 l -5.7572,5.44597 27.7572,37.67574 c 22.7584,30.89076 91.5512,124.32271 133.875,181.82426 5.0603,6.875 14.3463,19.475 20.6356,28 l 11.435,15.5 -1.5347,3.26106 -1.5348,3.26105 -40.5069,-0.26105 -40.507,-0.26106 -40.7968,-58 c -22.4382,-31.9 -46.9627,-66.775 -54.4988,-77.5 -7.5362,-10.725 -18.0013,-25.59375 -23.2558,-33.04167 -5.2545,-7.44792 -16.0787,-22.83842 -24.0537,-34.20111 l -14.5,-20.65943 -14.5,14.19908 c -7.975,7.8095 -23.3875,22.97078 -34.25,33.69174 l -19.75,19.49264 0,76.53713 c 0,75.44464 -0.029,76.56172 -2.0114,78.25938 -1.8059,1.54622 -5.0606,1.72224 -31.845,1.72224 -27.6323,0 -29.9557,-0.13493 -31.4886,-1.82874 z m 436.5193,-0.48571 -2.1743,-2.31445 0,-223.01124 0,-223.01123 2.3145,-2.17432 2.3144,-2.17431 161.5112,0 161.5113,0 2.1743,2.31445 c 2.1174,2.25384 2.1743,2.99565 2.1743,28.32569 0,25.89626 -0.01,26.02084 -2.3145,28.18555 L 2318.3711,433 2188.6855,433 2059,433 l 0,64.5 0,64.5 121.845,0 c 116.7715,0 121.9139,0.0761 123.5,1.82874 1.4524,1.60488 1.655,5.07467 1.655,28.34501 0,24.41854 -0.1447,26.6472 -1.8287,28.17126 -1.6806,1.5209 -11.687,1.65499 -123.5,1.65499 L 2059,622 l 0,72 0,72 135.345,0 c 129.8501,0 135.4122,0.0743 137,1.82874 1.454,1.60667 1.655,5.10941 1.655,28.84501 0,24.90294 -0.1431,27.14574 -1.8287,28.67126 C 2329.485,826.87109 2316.3347,827 2162.3456,827 l -166.997,0 -2.1743,-2.31445 z m 434,0 -2.1743,-2.31445 0,-223.01124 0,-223.01123 2.3145,-2.17432 2.3144,-2.17431 161.5112,0 161.5113,0 2.1743,2.31445 c 2.1174,2.25384 2.1743,2.99565 2.1743,28.32569 0,25.89626 -0.01,26.02084 -2.3145,28.18555 L 2752.3711,433 2622.6855,433 2493,433 l 0,64.48436 0,64.48436 121.6798,0.0234 c 111.5707,0.0214 121.831,0.16023 123.5,1.67063 1.6734,1.51444 1.8202,3.79388 1.8202,28.27003 0,25.43572 -0.09,26.69956 -2.0114,28.34501 -1.8794,1.60917 -9.9879,1.72224 -123.5,1.72224 L 2493,622 l 0,72 0,72 135.345,0 c 129.8501,0 135.4122,0.0743 137,1.82874 1.454,1.60667 1.655,5.10941 1.655,28.84501 0,24.90294 -0.1431,27.14574 -1.8287,28.67126 C 2763.485,826.87109 2750.3347,827 2596.3456,827 l -166.997,0 -2.1743,-2.31445 z m 431.4807,0.48571 c -1.5296,-1.69021 -1.655,-18.79883 -1.655,-225.84501 0,-218.67185 0.045,-224.05722 1.8965,-225.7326 1.7731,-1.60463 8.8504,-1.6899 108.75,-1.31035 110.2579,0.41891 114.4876,0.56396 135.125,4.63357 37.3244,7.36021 62.9134,23.24922 80.8615,50.20934 11.1236,16.70893 18.3576,35.87948 21.4059,56.7273 1.9879,13.59498 0.7296,44.14232 -2.3539,57.14649 -4.1641,17.56172 -10.1996,31.38907 -20.4988,46.9631 -20.5897,31.13472 -49.8395,47.12349 -100.1424,54.74077 -8.5986,1.30207 -24.1039,1.70729 -84.0438,2.19638 l -73.5,0.59975 -0.2554,88.92727 c -0.2327,81.00391 -0.4024,89.08967 -1.905,90.75 -1.5267,1.68697 -3.8983,1.82273 -31.8396,1.82273 -27.9776,0 -30.3113,-0.13402 -31.845,-1.82874 z m 216.7818,-244.04812 c 28.5529,-6.43808 43.9715,-16.9127 53.4936,-36.34083 6.4458,-13.15132 7.5696,-18.76064 7.5696,-37.78231 0,-18.64408 -1.4274,-25.24368 -8.3271,-38.5 -5.2807,-10.14566 -17.3741,-22.09238 -27.1729,-26.84328 -16.5197,-8.00945 -24.6655,-8.65484 -109.25,-8.65588 L 2924,433 l 0,75.55517 0,75.55517 70.75,-0.37333 c 68.9535,-0.36385 71.0023,-0.43022 80.6868,-2.61387 z"
     id="path2997"
     inkscape:connector-curvature="0" />
</svg>
